<?xml version="1.0"?><svg width="640" height="480" xmlns="http://www.w3.org/2000/svg">
 <g>
  <title>Layer 1</title>
  <g id="g3">
   <path d="m291.00592,241.638c0,0.842697 11.018982,0.447067 12.151794,0.264297c1.879578,-0.302475 -3.492645,-1.009949 -3.949829,-1.027405c-0.73407,-0.027512 -8.203125,-0.29245 -8.201965,0.763107" id="path5" fill="#67BA06"/>
   <path d="m305.13269,239.965225c0,-2.617355 0,-5.235367 0,-7.852402c0,-1.305618 0,-2.610901 0,-3.915863c0,-0.760193 0.520264,-0.479401 1.383911,-0.479401c3.818726,0 7.638245,0 11.457733,-0.000656c1.17627,0 2.464813,0.129074 3.494965,-0.455795c1.588501,-0.902863 1.399689,-2.410004 1.399689,-3.805862c0,-2.157684 1.13858,-7.200256 -1.400848,-8.643356c-2.219086,-1.260956 -7.101044,-0.456436 -9.574707,-0.456436c-1.127808,0 -6.759613,0.580338 -6.759613,-0.479736c0,-3.113602 0,-6.226868 -0.000763,-9.340149c0,-2.571091 -0.00885,-5.1008 -3.979492,-5.1008c-1.823029,0 -3.646057,0 -5.470276,0c-1.35083,0 -3.203857,-0.248764 -4.492798,0.210266c-2.968933,1.056534 -1.940735,5.604813 -1.940735,7.714294c0,0.553802 0.104614,6.996124 -0.095734,6.996124c-3.406525,0 -6.812653,0 -10.219208,0c-2.702454,0 -7.421753,-0.627579 -7.42099,2.789139c0,2.623505 0.000397,5.24733 0.000397,7.87085c0,3.439667 5.25531,2.702438 7.90509,2.702438c0.796753,0 9.830444,-0.08638 9.830444,0.080872c0,3.246552 0.000397,6.492783 0.000397,9.738998c0,1.050705 -0.253387,2.466949 0.249176,3.468155c0.878235,1.748459 2.95932,1.632324 4.816589,1.632324c2.830505,-0.000641 10.818665,1.206619 10.816772,-2.673004" id="path12" fill="url(#XMLID_2_)"/>
   <path d="m273.791016,215.950912c1.002075,0 0.532166,9.269943 0.314911,10.223267c-0.360687,1.581543 -1.201263,-2.938263 -1.222015,-3.322571c-0.032715,-0.616898 -0.346863,-6.901672 0.907104,-6.900696" id="path14" fill="#B2ED21"/>
   <path d="m321.538513,215.950912c1.001709,0 0.532593,9.269943 0.315704,10.223267c-0.360687,1.581543 -1.202026,-2.938263 -1.222809,-3.322571c-0.032654,-0.616898 -0.345673,-6.901672 0.907104,-6.900696" id="path16" fill="#B2ED21"/>
   <path d="m291.198914,226.33075c1.023621,0.000977 0.513733,13.343979 0.30957,14.574219c-0.136505,0.818115 -0.494507,0.73497 -0.700226,-0.016495c-0.469513,-1.714828 -0.487213,-3.555481 -0.534515,-5.305252c-0.019592,-0.710709 -0.302979,-9.253448 0.925171,-9.252472" id="path18" fill="#67BA06"/>
   <path d="m305.884796,216.036636c0,0.858856 13.794525,0.416977 15.060028,0.286606c0.599854,-0.062103 1.369293,-0.317993 0.375671,-0.574188c-1.726135,-0.444153 -3.696075,-0.439957 -5.481049,-0.485245c-0.804413,-0.02037 -9.954651,-0.274323 -9.954651,0.772827" id="path20" fill="#B2ED21"/>
   <path d="m273.791016,215.950912c0.001129,-0.72818 16.387756,-0.58197 16.38855,0.00032c0,0.622711 -16.386261,1.804749 -16.38855,-0.00032" id="path22" fill="#B2ED21"/>
   <path d="m291.00592,201.469208c0,0.843018 11.018982,0.447067 12.151794,0.264618c1.879211,-0.302475 -3.492645,-1.010269 -3.950226,-1.02774c-0.733673,-0.027496 -8.202728,-0.292099 -8.201569,0.763123" id="path24" fill="#B2ED21"/>
   <path d="m291.00592,201.469208c-0.864441,0 -0.693726,13.684296 -0.000397,13.684296c0.753662,0.00032 2.137573,-13.684296 0.000397,-13.684296" id="path26" fill="#B2ED21"/>
   <path d="m303.608765,201.158005c-0.865936,0 -0.48526,7.843994 -0.481415,8.486771c0.006927,1.199844 -0.168793,2.640015 0.264191,3.805878c0.33374,0.899292 0.866699,-1.459274 0.887085,-1.592224c0.163452,-1.079163 1.282776,-10.702362 -0.669861,-10.700424" id="path28" fill="#B2ED21"/>
   <path d="m303.608398,226.754196c-0.749054,-0.001617 -0.482971,7.474899 -0.482971,8.124146c0,1.859421 -0.102661,3.753784 0.125732,5.606735c0.12616,1.027084 0.563721,1.120575 0.834839,0.068253c0.269928,-1.04422 1.373535,-13.802689 -0.4776,-13.799133" id="path30" fill="#67BA06"/>
   <path d="m273.96405,226.097183c-0.00116,-0.726563 9.324768,-0.408234 10.087677,-0.404358c1.426971,0.005829 3.138519,-0.142014 4.523956,0.221588c1.069763,0.280792 -1.734985,0.729797 -1.891876,0.746628c-1.282013,0.137146 -12.723999,1.076889 -12.719757,-0.563858" id="path32" fill="#67BA06"/>
   <path d="m304.456299,226.09848c-0.000793,-0.637604 8.543793,-0.407913 9.277863,-0.407913c2.209869,0 4.46167,-0.085083 6.664642,0.10675c1.220093,0.106094 1.332367,0.473907 0.081482,0.702621c-1.24469,0.227402 -16.023987,1.182037 -16.023987,-0.401459" id="path34" fill="#67BA06"/>
   <path d="m304.46936,199.992477c-1.73999,-1.46347 -5.577209,-0.876022 -7.787445,-0.876022c-2.677094,0 -7.001099,-0.621429 -7.736694,2.388657c-0.468719,1.917648 -0.072296,4.178207 -0.072296,6.117538c0,2.138596 0,4.277191 0,6.415451c-3.396545,-0.002579 -6.792664,-0.00032 -10.189575,0c-3.062775,0 -7.546356,-0.482635 -7.546356,3.245911c0,2.547806 -0.301849,5.226639 0,7.760864c0,3.856003 6.113617,2.990021 9.058685,2.990021c1.040161,0 8.67804,-0.354553 8.67804,0.31929c0,3.133972 0,6.2686 0,9.403214c0,2.901398 0.516785,5.197205 4.678528,5.197205c1.875336,0 3.751068,0 5.626404,0c1.503113,0.000656 3.431885,0.240997 4.748535,-0.499466c2.563629,-1.442444 1.583496,-5.827682 1.583496,-8.006393c0,-1.626511 0,-3.253021 0,-4.880173c0,-1.006378 -0.408783,-1.533997 0.848999,-1.533997c3.834534,0 7.6698,0 11.503906,0c1.294739,0 2.682068,0.132629 3.814514,-0.511444c1.716553,-0.975967 1.568878,-2.556549 1.568878,-4.068207c0,-2.31781 1.13858,-7.36557 -1.568878,-8.905701c-1.132446,-0.64505 -2.521332,-0.511765 -3.814514,-0.511765c-2.106812,0 -4.21286,0 -6.320068,0c-1.728088,0 -3.45575,0 -5.183838,0c-1.257782,0 -0.848999,-0.528259 -0.848999,-1.534317c0,-3.224228 0,-6.448135 0,-9.672043c-0.000427,-1.047134 -0.088867,-2.037674 -1.041321,-2.838623m-32.577545,25.052078c0,-2.587601 -0.000397,-5.17392 -0.000397,-7.761505c0,-3.349747 4.807373,-2.61058 7.463684,-2.61058c3.393066,0 6.785767,0 10.178467,0c0.196075,0 0.093811,-6.395721 0.093811,-6.939835c0,-1.921219 -1.04361,-6.660355 1.569641,-7.741455c1.12204,-0.464218 2.809326,-0.240036 4.007538,-0.240036c1.983368,0.000656 3.966003,0.000977 5.949005,0.000977c4.093689,0 3.602264,2.969971 3.602264,5.48317c0,3.043396 0,6.087112 0,9.131165c0,1.088211 14.60434,-0.58197 16.686554,0.823929c2.191833,1.480942 1.049377,6.562973 1.049377,8.601608c0,1.296555 0.076904,2.6866 -1.570007,3.367538c-1.035919,0.427979 -2.550171,0.239716 -3.661072,0.239716c-3.815674,0 -7.631744,0 -11.446625,0c-0.802887,0 -1.058624,-0.209625 -1.058624,0.470352c0,1.430466 0,2.861267 0,4.292068c0,2.531952 0.377991,5.289398 0,7.803894c0,3.456818 -7.49173,2.354034 -10.008484,2.354034c-1.674988,-0.000656 -3.750275,0.272705 -4.747742,-1.179123c-0.609467,-0.887665 -0.371826,-2.242432 -0.371826,-3.221649c0,-3.350067 0,-6.700134 0,-10.049225c0.000366,-2.255707 -17.74057,2.343369 -17.735565,-2.825043" id="path36" fill="#5A9908"/>
  </g>
 </g>
 <defs>
  <radialGradient gradientTransform="matrix(0.384527325630188,0,0,0.32349056005477905,255.23678588867188,185.41339111328125)" cx="52.4082" cy="36.1948" gradientUnits="userSpaceOnUse" id="XMLID_2_" r="105.1645">
   <stop id="stop8" offset="0" stop-color="#D1F593"/>
   <stop id="stop10" offset="1" stop-color="#81CE09"/>
  </radialGradient>
 </defs>
</svg>